<!-- <svg width="200" height="200" viewBox="0 0 200 200" xmlns="http://www.w3.org/2000/svg"><g fill="none" fill-rule="evenodd"><path fill="#FFF" d="M99 52h84v34H99z"/><path d="M23 163c-7.398 0-13.843-4.027-17.303-10A19.886 19.886 0 0 0 3 163c0 11.046 8.954 20 20 20h20v-20H23z" fill="#3ECC5F"/><path d="M112.98 57.376L183 53V43c0-11.046-8.954-20-20-20H73l-2.5-4.33c-1.112-1.925-3.889-1.925-5 0L63 23l-2.5-4.33c-1.111-1.925-3.889-1.925-5 0L53 23l-2.5-4.33c-1.111-1.925-3.889-1.925-5 0L43 23c-.022 0-.042.003-.065.003l-4.142-4.141c-1.57-1.571-4.252-.853-4.828 1.294l-1.369 5.104-5.192-1.392c-2.148-.575-4.111 1.389-3.535 3.536l1.39 5.193-5.102 1.367c-2.148.576-2.867 3.259-1.296 4.83l4.142 4.142c0 .021-.003.042-.003.064l-4.33 2.5c-1.925 1.111-1.925 3.889 0 5L23 53l-4.33 2.5c-1.925 1.111-1.925 3.889 0 5L23 63l-4.33 2.5c-1.925 1.111-1.925 3.889 0 5L23 73l-4.33 2.5c-1.925 1.111-1.925 3.889 0 5L23 83l-4.33 2.5c-1.925 1.111-1.925 3.889 0 5L23 93l-4.33 2.5c-1.925 1.111-1.925 3.889 0 5L23 103l-4.33 2.5c-1.925 1.111-1.925 3.889 0 5L23 113l-4.33 2.5c-1.925 1.111-1.925 3.889 0 5L23 123l-4.33 2.5c-1.925 1.111-1.925 3.889 0 5L23 133l-4.33 2.5c-1.925 1.111-1.925 3.889 0 5L23 143l-4.33 2.5c-1.925 1.111-1.925 3.889 0 5L23 153l-4.33 2.5c-1.925 1.111-1.925 3.889 0 5L23 163c0 11.046 8.954 20 20 20h120c11.046 0 20-8.954 20-20V83l-70.02-4.376A10.645 10.645 0 0 1 103 68c0-5.621 4.37-10.273 9.98-10.624" fill="#3ECC5F"/><path fill="#3ECC5F" d="M143 183h30v-40h-30z"/><path d="M193 158c-.219 0-.428.037-.639.064-.038-.15-.074-.301-.116-.451A5 5 0 0 0 190.32 148a4.96 4.96 0 0 0-3.016 1.036 26.531 26.531 0 0 0-.335-.336 4.955 4.955 0 0 0 1.011-2.987 5 5 0 0 0-9.599-1.959c-.148-.042-.297-.077-.445-.115.027-.211.064-.42.064-.639a5 5 0 0 0-5-5 5 5 0 0 0-5 5c0 .219.037.428.064.639-.148.038-.297.073-.445.115a4.998 4.998 0 0 0-9.599 1.959c0 1.125.384 2.151 1.011 2.987-3.717 3.632-6.031 8.693-6.031 14.3 0 11.046 8.954 20 20 20 9.339 0 17.16-6.41 19.361-15.064.211.027.42.064.639.064a5 5 0 0 0 5-5 5 5 0 0 0-5-5" fill="#44D860"/><path fill="#3ECC5F" d="M153 123h30v-20h-30z"/><path d="M193 115.5a2.5 2.5 0 1 0 0-5c-.109 0-.214.019-.319.032-.02-.075-.037-.15-.058-.225a2.501 2.501 0 0 0-.963-4.807c-.569 0-1.088.197-1.508.518a6.653 6.653 0 0 0-.168-.168c.314-.417.506-.931.506-1.494a2.5 2.5 0 0 0-4.8-.979A9.987 9.987 0 0 0 183 103c-5.522 0-10 4.478-10 10s4.478 10 10 10c.934 0 1.833-.138 2.69-.377a2.5 2.5 0 0 0 4.8-.979c0-.563-.192-1.077-.506-1.494.057-.055.113-.111.168-.168.42.321.939.518 1.508.518a2.5 2.5 0 0 0 .963-4.807c.021-.074.038-.15.058-.225.105.013.21.032.319.032" fill="#44D860"/><path d="M63 55.5a2.5 2.5 0 0 1-2.5-2.5c0-4.136-3.364-7.5-7.5-7.5s-7.5 3.364-7.5 7.5a2.5 2.5 0 1 1-5 0c0-6.893 5.607-12.5 12.5-12.5S65.5 46.107 65.5 53a2.5 2.5 0 0 1-2.5 2.5" fill="#000"/><path d="M103 183h60c11.046 0 20-8.954 20-20V93h-60c-11.046 0-20 8.954-20 20v70z" fill="#FFFF50"/><path d="M168.02 124h-50.04a1 1 0 1 1 0-2h50.04a1 1 0 1 1 0 2m0 20h-50.04a1 1 0 1 1 0-2h50.04a1 1 0 1 1 0 2m0 20h-50.04a1 1 0 1 1 0-2h50.04a1 1 0 1 1 0 2m0-49.814h-50.04a1 1 0 1 1 0-2h50.04a1 1 0 1 1 0 2m0 19.814h-50.04a1 1 0 1 1 0-2h50.04a1 1 0 1 1 0 2m0 20h-50.04a1 1 0 1 1 0-2h50.04a1 1 0 1 1 0 2M183 61.611c-.012 0-.022-.006-.034-.005-3.09.105-4.552 3.196-5.842 5.923-1.346 2.85-2.387 4.703-4.093 4.647-1.889-.068-2.969-2.202-4.113-4.46-1.314-2.594-2.814-5.536-5.963-5.426-3.046.104-4.513 2.794-5.807 5.167-1.377 2.528-2.314 4.065-4.121 3.994-1.927-.07-2.951-1.805-4.136-3.813-1.321-2.236-2.848-4.75-5.936-4.664-2.994.103-4.465 2.385-5.763 4.4-1.373 2.13-2.335 3.428-4.165 3.351-1.973-.07-2.992-1.51-4.171-3.177-1.324-1.873-2.816-3.993-5.895-3.89-2.928.1-4.399 1.97-5.696 3.618-1.232 1.564-2.194 2.802-4.229 2.724a1 1 0 0 0-.072 2c3.017.101 4.545-1.8 5.872-3.487 1.177-1.496 2.193-2.787 4.193-2.855 1.926-.082 2.829 1.115 4.195 3.045 1.297 1.834 2.769 3.914 5.731 4.021 3.103.104 4.596-2.215 5.918-4.267 1.182-1.834 2.202-3.417 4.15-3.484 1.793-.067 2.769 1.35 4.145 3.681 1.297 2.197 2.766 4.686 5.787 4.796 3.125.108 4.634-2.62 5.949-5.035 1.139-2.088 2.214-4.06 4.119-4.126 1.793-.042 2.728 1.595 4.111 4.33 1.292 2.553 2.757 5.445 5.825 5.556l.169.003c3.064 0 4.518-3.075 5.805-5.794 1.139-2.41 2.217-4.68 4.067-4.773v-2z" fill="#000"/><path fill="#3ECC5F" d="M83 183h40v-40H83z"/><path d="M143 158c-.219 0-.428.037-.639.064-.038-.15-.074-.301-.116-.451A5 5 0 0 0 140.32 148a4.96 4.96 0 0 0-3.016 1.036 26.531 26.531 0 0 0-.335-.336 4.955 4.955 0 0 0 1.011-2.987 5 5 0 0 0-9.599-1.959c-.148-.042-.297-.077-.445-.115.027-.211.064-.42.064-.639a5 5 0 0 0-5-5 5 5 0 0 0-5 5c0 .219.037.428.064.639-.148.038-.297.073-.445.115a4.998 4.998 0 0 0-9.599 1.959c0 1.125.384 2.151 1.011 2.987-3.717 3.632-6.031 8.693-6.031 14.3 0 11.046 8.954 20 20 20 9.339 0 17.16-6.41 19.361-15.064.211.027.42.064.639.064a5 5 0 0 0 5-5 5 5 0 0 0-5-5" fill="#44D860"/><path fill="#3ECC5F" d="M83 123h40v-20H83z"/><path d="M133 115.5a2.5 2.5 0 1 0 0-5c-.109 0-.214.019-.319.032-.02-.075-.037-.15-.058-.225a2.501 2.501 0 0 0-.963-4.807c-.569 0-1.088.197-1.508.518a6.653 6.653 0 0 0-.168-.168c.314-.417.506-.931.506-1.494a2.5 2.5 0 0 0-4.8-.979A9.987 9.987 0 0 0 123 103c-5.522 0-10 4.478-10 10s4.478 10 10 10c.934 0 1.833-.138 2.69-.377a2.5 2.5 0 0 0 4.8-.979c0-.563-.192-1.077-.506-1.494.057-.055.113-.111.168-.168.42.321.939.518 1.508.518a2.5 2.5 0 0 0 .963-4.807c.021-.074.038-.15.058-.225.105.013.21.032.319.032" fill="#44D860"/><path d="M143 41.75c-.16 0-.33-.02-.49-.05a2.52 2.52 0 0 1-.47-.14c-.15-.06-.29-.14-.431-.23-.13-.09-.259-.2-.38-.31-.109-.12-.219-.24-.309-.38s-.17-.28-.231-.43a2.619 2.619 0 0 1-.189-.96c0-.16.02-.33.05-.49.03-.16.08-.31.139-.47.061-.15.141-.29.231-.43.09-.13.2-.26.309-.38.121-.11.25-.22.38-.31.141-.09.281-.17.431-.23.149-.06.31-.11.47-.14.32-.07.65-.07.98 0 .159.03.32.08.47.14.149.06.29.14.43.23.13.09.259.2.38.31.11.12.22.25.31.38.09.14.17.28.23.43.06.16.11.31.14.47.029.16.05.33.05.49 0 .66-.271 1.31-.73 1.77-.121.11-.25.22-.38.31-.14.09-.281.17-.43.23a2.565 2.565 0 0 1-.96.19m20-1.25c-.66 0-1.3-.27-1.771-.73a3.802 3.802 0 0 1-.309-.38c-.09-.14-.17-.28-.231-.43a2.619 2.619 0 0 1-.189-.96c0-.66.27-1.3.729-1.77.121-.11.25-.22.38-.31.141-.09.281-.17.431-.23.149-.06.31-.11.47-.14.32-.07.66-.07.98 0 .159.03.32.08.47.14.149.06.29.14.43.23.13.09.259.2.38.31.459.47.73 1.11.73 1.77 0 .16-.021.33-.05.49-.03.16-.08.32-.14.47-.07.15-.14.29-.23.43-.09.13-.2.26-.31.38-.121.11-.25.22-.38.31-.14.09-.281.17-.43.23a2.565 2.565 0 0 1-.96.19" fill="#000"/></g></svg> -->
<svg t="1659498739679" class="icon" viewBox="0 0 1024 1024" version="1.1" xmlns="http://www.w3.org/2000/svg" p-id="15872" width="200" height="200"><path d="M512 1023.999166A512.125297 512.125297 0 0 1 312.743019 40.251396 512.113868 512.113868 0 0 1 711.314123 983.736341 508.891014 508.891014 0 0 1 512 1023.999166z m0-601.142368a89.142785 89.142785 0 1 0 89.142785 89.142785 89.245642 89.245642 0 0 0-89.142785-89.142785z" fill="#25467A" p-id="15873"></path><path d="M975.999622 511.999583c0 256.25122-207.736974 463.999622-463.999622 463.999622S48.000378 768.250803 48.000378 511.999583 255.74878 47.999961 512 47.999961s463.999622 207.736974 463.999622 463.999622zM512 374.856837a137.142745 137.142745 0 1 0 137.142745 137.142746 137.142745 137.142745 0 0 0-137.142745-137.142746z" fill="#FFCC80" p-id="15874"></path><path d="M623.657052 954.993508c-38.765683 0-64.811376-20.068555-86.605644-23.177124-35.154257-5.00571-35.782828 22.937124-122.148472 7.999993-42.04568-7.257137-24.651408-29.005691-78.297079-39.154254-14.354274-2.708569-36.468542-23.222838-89.508498-49.142817-34.674257-16.937129-64.571376-36.731399-88.879928-58.845666-36.331399-32.98283-60.697093-71.325656-72.434227-113.874193-18.479985-67.039945 3.051426-116.091334 15.919987-145.405596 8.571422-19.531413 14.239988-32.434259 14.78856-61.165664 0.434285-22.582839-2.788569-35.737114-6.857137-52.399958-7.417137-30.171404-19.748555-80.67422 10.914276-140.022743 33.22283-64.194233 87.119929-82.58279 122.788472-94.754208 20.319983-6.925709 41.337109-14.091417 70.228514-31.622832 26.457121-16.068558 39.371396-28.445691 53.039957-41.554251 22.857124-21.908554 57.394239-55.028527 121.05133-63.851377 29.337119-4.068568 55.222812-1.622856 83.93136 7.931422 18.868556 6.285709 37.839969 15.165702 69.268515 29.874262 16.628558 7.794279 37.314255 17.4857 63.417091 29.32569 24.537123 11.13142 44.708535 20.022841 60.914236 27.165692 33.428544 14.719988 53.611385 23.611409 71.382799 34.285686 28.45712 17.017129 48.857103 37.999969 64.228519 66.011375 32.651402 59.542809 23.337124 110.411339 17.759986 140.799885-3.09714 16.959986-4.045711 22.068553-0.662857 34.148544 3.302854 11.805705 7.211423 16.868558 16.651415 29.097119 17.462843 22.639982 49.965674 64.77709 45.30282 131.428465a168.571291 168.571291 0 0 1-33.965686 90.994211c-13.371418 17.714271-28.205691 31.051403-43.908536 45.142821-12.891418 11.657133-27.508549 24.822837-45.234249 43.862821-32.868545 35.428543-50.137102 62.697092-65.359946 86.857072-12.742847 20.159984-24.777123 39.199968-42.28568 57.142811-26.62855 27.337121-38.674254 35.999971-76.182795 42.20568-10.137135 1.599999-40.171396 10.697134-49.257103 10.697134zM333.737288 562.102399a75.999938 75.999938 0 0 0 46.639962 90.114212c29.897118 11.302848 107.919912 38.765683 115.72562 41.142824 26.925692 8.297136 104.399915 1.439999 136.514175-22.045696 20.171412-14.754274 33.074259-43.359965 56.685668-68.777087q6.342852-6.857137 12.285704-12.937132a61.142807 61.142807 0 0 0 11.634276-68.045659 291.428334 291.428334 0 0 1-15.439987-42.434251 280.388343 280.388343 0 0 1-10.422849-65.245661 92.651353 92.651353 0 0 0-54.68567-80.742792c-36.834256-16.639986-79.222793-35.839971-88.754213-40.29711l-0.251428-0.114285a39.268539 39.268539 0 0 0-42.514251 5.999995 487.38246 487.38246 0 0 1-69.005659 50.102816c-16.13713 9.794278-31.119975 17.817128-44.879963 24.47998a76.159938 76.159938 0 0 0-42.765679 72.674227c0.514285 9.508564 8.26285 37.805683 7.999993 48.742817-0.605714 34.045687-12.765704 44.148535-18.765699 67.382802z" fill="#FFD1E1" p-id="15875"></path><path d="M512 340.571151c-94.525637 0-171.428432 76.902794-171.428432 171.428432s76.902794 171.428432 171.428432 171.428432 171.428432-76.902794 171.428432-171.428432-76.902794-171.428432-171.428432-171.428432z m0 308.571177a137.142745 137.142745 0 1 1 137.142745-137.142745 137.142745 137.142745 0 0 1-137.142745 137.142745z" fill="#B55408" p-id="15876"></path><path d="M507.577146 977.084918zM511.337143 977.084918z" fill="#EFEBE9" p-id="15877"></path><path d="M507.577146 977.084918zM511.051429 977.084918z" fill="#D7CCC8" p-id="15878"></path><path d="M507.577146 977.084918zM511.051429 977.084918z" fill="#EFEBE9" p-id="15879"></path><path d="M509.314288 912.044971a69.279944 69.279944 0 0 1-69.188515-69.222801 13.851417 13.851417 0 0 1 27.679977-0.834285v0.834285a41.519966 41.519966 0 0 0 83.028504 0 13.839989 13.839989 0 1 1 27.668549-0.834285v0.834285a69.268515 69.268515 0 0 1-69.188515 69.222801zM329.383006 732.136546a41.519966 41.519966 0 0 0 83.028504 0.057143v-0.057143a41.519966 41.519966 0 0 0-83.028504 0zM606.148495 732.136546a41.519966 41.519966 0 1 0 83.028504 0.08v-0.08a41.519966 41.519966 0 0 0-83.028504 0z" fill="#25467A" p-id="15880"></path><path d="M315.554446 801.33649h-55.291384a27.679977 27.679977 0 0 0 0 55.348526h55.382812a27.679977 27.679977 0 1 0 0-55.348526h-0.091428z m442.811068 0h-55.359955a27.679977 27.679977 0 0 0 0 55.348526h55.359955a27.679977 27.679977 0 0 0 0-55.348526z" fill="#F06292" p-id="15881"></path><path d="M288.754468 222.136962m-31.428546 0a31.428546 31.428546 0 1 0 62.857091 0 31.428546 31.428546 0 1 0-62.857091 0Z" fill="#F06292" p-id="15882"></path><path d="M787.542633 277.23406m-31.428546 0a31.428546 31.428546 0 1 0 62.857091 0 31.428546 31.428546 0 1 0-62.857091 0Z" fill="#F06292" p-id="15883"></path><path d="M857.131147 523.725288m-31.428545 0a31.428546 31.428546 0 1 0 62.857091 0 31.428546 31.428546 0 1 0-62.857091 0Z" fill="#F06292" p-id="15884"></path><path d="M207.497391 489.599601m-31.428546 0a31.428546 31.428546 0 1 0 62.857092 0 31.428546 31.428546 0 1 0-62.857092 0Z" fill="#F06292" p-id="15885"></path><path d="M584.617084 174.251287m-31.428546 0a31.428546 31.428546 0 1 0 62.857092 0 31.428546 31.428546 0 1 0-62.857092 0Z" fill="#F06292" p-id="15886"></path><path d="M912.239674 570.12525m-31.428546 0a31.428546 31.428546 0 1 0 62.857092 0 31.428546 31.428546 0 1 0-62.857092 0Z" fill="#FFF176" p-id="15887"></path><path d="M158.251717 558.525259m-31.428546 0a31.428546 31.428546 0 1 0 62.857092 0 31.428546 31.428546 0 1 0-62.857092 0Z" fill="#FFF176" p-id="15888"></path><path d="M358.342982 178.628426m-31.428545 0a31.428546 31.428546 0 1 0 62.857091 0 31.428546 31.428546 0 1 0-62.857091 0Z" fill="#FFF176" p-id="15889"></path><path d="M741.531242 349.108287m-31.428546 0a31.428546 31.428546 0 1 0 62.857091 0 31.428546 31.428546 0 1 0-62.857091 0Z" fill="#FFF176" p-id="15890"></path></svg>